<svg width="14" height="14" viewBox="0 0 14 14" fill="none" xmlns="http://www.w3.org/2000/svg">
<g id="calendar">
<path id="Fill 1" fill-rule="evenodd" clip-rule="evenodd" d="M10.223 1.07203C10.1113 0.528715 9.63081 0.119141 9.05472 0.119141C8.92336 0.119141 8.81762 0.226077 8.81762 0.357736C8.81762 0.489098 8.92336 0.596332 9.05472 0.596332C9.4494 0.596332 9.77051 0.916247 9.77051 1.31063C9.77051 1.70501 9.4494 2.02493 9.05472 2.02493C8.92336 2.02493 8.81762 2.13216 8.81762 2.26352C8.81762 2.39518 8.92336 2.50212 9.05472 2.50212C9.63081 2.50212 10.1113 2.09254 10.223 1.54923H13.345V3.69361H0.477191V1.54923H4.52736C4.65902 1.54923 4.76596 1.44199 4.76596 1.31063C4.76596 1.17927 4.65902 1.07203 4.52736 1.07203H4.09455C4.19345 0.795311 4.45528 0.596332 4.76596 0.596332C5.16034 0.596332 5.48026 0.916247 5.48026 1.31063C5.48026 1.70501 5.16034 2.02493 4.76596 2.02493C4.6346 2.02493 4.52736 2.13216 4.52736 2.26352C4.52736 2.39518 4.6346 2.50212 4.76596 2.50212C5.42336 2.50212 5.95745 1.96803 5.95745 1.31063C5.95745 0.653226 5.42336 0.119141 4.76596 0.119141C4.19106 0.119141 3.7094 0.528715 3.59889 1.07203H0V13.7027H13.8207V1.07203H10.223ZM0.477191 13.2255H13.345V4.1708H0.477191V13.2255Z" fill="black"/>
<path id="Fill 2" fill-rule="evenodd" clip-rule="evenodd" d="M6.19612 0.596332C6.5905 0.596332 6.91041 0.916247 6.91041 1.31063C6.91041 1.70501 6.5905 2.02493 6.19612 2.02493C6.06446 2.02493 5.95752 2.13216 5.95752 2.26352C5.95752 2.39518 6.06446 2.50212 6.19612 2.50212C6.85233 2.50212 7.3876 1.96803 7.3876 1.31063C7.3876 0.653226 6.85233 0.119141 6.19612 0.119141C6.06446 0.119141 5.95752 0.226077 5.95752 0.357736C5.95752 0.489098 6.06446 0.596332 6.19612 0.596332Z" fill="black"/>
<path id="Fill 3" fill-rule="evenodd" clip-rule="evenodd" d="M7.62629 0.596332C8.01948 0.596332 8.34059 0.916247 8.34059 1.31063C8.34059 1.70501 8.01948 2.02493 7.62629 2.02493C7.49463 2.02493 7.3877 2.13216 7.3877 2.26352C7.3877 2.39518 7.49463 2.50212 7.62629 2.50212C8.2825 2.50212 8.81778 1.96803 8.81778 1.31063C8.81778 0.653226 8.2825 0.119141 7.62629 0.119141C7.49463 0.119141 7.3877 0.226077 7.3877 0.357736C7.3877 0.489098 7.49463 0.596332 7.62629 0.596332Z" fill="black"/>
<path id="Fill 4" fill-rule="evenodd" clip-rule="evenodd" d="M3.09705 7.98234C3.88612 7.98234 4.52714 7.34132 4.52714 6.55374C4.52714 5.76468 3.88612 5.12366 3.09705 5.12366C2.30948 5.12366 1.66846 5.76468 1.66846 6.55374C1.66846 7.34132 2.30948 7.98234 3.09705 7.98234ZM3.09705 5.59936C3.6231 5.59936 4.05144 6.0277 4.05144 6.55374C4.05144 7.0783 3.6231 7.50664 3.09705 7.50664C2.5725 7.50664 2.14416 7.0783 2.14416 6.55374C2.14416 6.0277 2.5725 5.59936 3.09705 5.59936Z" fill="black"/>
<path id="Fill 5" fill-rule="evenodd" clip-rule="evenodd" d="M6.91055 7.98234C7.69962 7.98234 8.34064 7.34132 8.34064 6.55374C8.34064 5.76468 7.69962 5.12366 6.91055 5.12366C6.12298 5.12366 5.48047 5.76468 5.48047 6.55374C5.48047 7.34132 6.12298 7.98234 6.91055 7.98234ZM6.91055 5.59936C7.4366 5.59936 7.86345 6.0277 7.86345 6.55374C7.86345 7.0783 7.4366 7.50664 6.91055 7.50664C6.38481 7.50664 5.95766 7.0783 5.95766 6.55374C5.95766 6.0277 6.38481 5.59936 6.91055 5.59936Z" fill="black"/>
<path id="Fill 6" fill-rule="evenodd" clip-rule="evenodd" d="M10.7235 7.98234C11.5123 7.98234 12.1536 7.34132 12.1536 6.55374C12.1536 5.76468 11.5123 5.12366 10.7235 5.12366C9.93478 5.12366 9.29346 5.76468 9.29346 6.55374C9.29346 7.34132 9.93478 7.98234 10.7235 7.98234ZM10.7235 5.59936C11.2496 5.59936 11.6764 6.0277 11.6764 6.55374C11.6764 7.0783 11.2496 7.50664 10.7235 7.50664C10.1975 7.50664 9.77065 7.0783 9.77065 6.55374C9.77065 6.0277 10.1975 5.59936 10.7235 5.59936Z" fill="black"/>
<path id="Fill 7" fill-rule="evenodd" clip-rule="evenodd" d="M3.09705 11.7954C3.88612 11.7954 4.52714 11.1544 4.52714 10.3654C4.52714 9.57779 3.88612 8.93677 3.09705 8.93677C2.30948 8.93677 1.66846 9.57779 1.66846 10.3654C1.66846 11.1544 2.30948 11.7954 3.09705 11.7954ZM3.09705 9.41247C3.6231 9.41247 4.05144 9.84081 4.05144 10.3654C4.05144 10.8914 3.6231 11.3197 3.09705 11.3197C2.5725 11.3197 2.14416 10.8914 2.14416 10.3654C2.14416 9.84081 2.5725 9.41247 3.09705 9.41247Z" fill="black"/>
<path id="Fill 8" fill-rule="evenodd" clip-rule="evenodd" d="M6.91055 11.7954C7.69962 11.7954 8.34064 11.1544 8.34064 10.3654C8.34064 9.57779 7.69962 8.93677 6.91055 8.93677C6.12298 8.93677 5.48047 9.57779 5.48047 10.3654C5.48047 11.1544 6.12298 11.7954 6.91055 11.7954ZM6.91055 9.41247C7.4366 9.41247 7.86345 9.84081 7.86345 10.3654C7.86345 10.8914 7.4366 11.3197 6.91055 11.3197C6.38481 11.3197 5.95766 10.8914 5.95766 10.3654C5.95766 9.84081 6.38481 9.41247 6.91055 9.41247Z" fill="black"/>
<path id="Fill 9" fill-rule="evenodd" clip-rule="evenodd" d="M10.9849 11.5689C10.9849 11.7086 10.8725 11.8197 10.7349 11.8197C10.5972 11.8197 10.4849 11.7086 10.4849 11.5689C10.4849 11.4308 10.5972 11.3197 10.7349 11.3197C10.8725 11.3197 10.9849 11.4308 10.9849 11.5689Z" fill="black"/>
<path id="Fill 10" fill-rule="evenodd" clip-rule="evenodd" d="M10.0317 11.332C10.0317 11.47 9.91938 11.5812 9.78174 11.5812C9.64379 11.5812 9.53174 11.47 9.53174 11.332C9.53174 11.1923 9.64379 11.0812 9.78174 11.0812C9.91938 11.0812 10.0317 11.1923 10.0317 11.332Z" fill="black"/>
<path id="Fill 11" fill-rule="evenodd" clip-rule="evenodd" d="M11.9375 11.332C11.9375 11.47 11.8255 11.5812 11.6875 11.5812C11.5499 11.5812 11.4375 11.47 11.4375 11.332C11.4375 11.1923 11.5499 11.0812 11.6875 11.0812C11.8255 11.0812 11.9375 11.1923 11.9375 11.332Z" fill="black"/>
<path id="Fill 12" fill-rule="evenodd" clip-rule="evenodd" d="M11.9375 9.42383C11.9375 9.56178 11.8255 9.67383 11.6875 9.67383C11.5499 9.67383 11.4375 9.56178 11.4375 9.42383C11.4375 9.28619 11.5499 9.17383 11.6875 9.17383C11.8255 9.17383 11.9375 9.28619 11.9375 9.42383Z" fill="black"/>
<path id="Fill 13" fill-rule="evenodd" clip-rule="evenodd" d="M10.0317 9.42383C10.0317 9.56178 9.91938 9.67383 9.78174 9.67383C9.64379 9.67383 9.53174 9.56178 9.53174 9.42383C9.53174 9.28619 9.64379 9.17383 9.78174 9.17383C9.91938 9.17383 10.0317 9.28619 10.0317 9.42383Z" fill="black"/>
<path id="Fill 14" fill-rule="evenodd" clip-rule="evenodd" d="M10.5093 9.90112C10.5093 10.0388 10.3981 10.1511 10.2585 10.1511C10.1204 10.1511 10.0093 10.0388 10.0093 9.90112C10.0093 9.76317 10.1204 9.65112 10.2585 9.65112C10.3981 9.65112 10.5093 9.76317 10.5093 9.90112Z" fill="black"/>
<path id="Fill 15" fill-rule="evenodd" clip-rule="evenodd" d="M11.4619 9.90112C11.4619 10.0388 11.3508 10.1511 11.2127 10.1511C11.0731 10.1511 10.9619 10.0388 10.9619 9.90112C10.9619 9.76317 11.0731 9.65112 11.2127 9.65112C11.3508 9.65112 11.4619 9.76317 11.4619 9.90112Z" fill="black"/>
<path id="Fill 16" fill-rule="evenodd" clip-rule="evenodd" d="M10.9849 10.3775C10.9849 10.5171 10.8725 10.6283 10.7349 10.6283C10.5972 10.6283 10.4849 10.5171 10.4849 10.3775C10.4849 10.2394 10.5972 10.1283 10.7349 10.1283C10.8725 10.1283 10.9849 10.2394 10.9849 10.3775Z" fill="black"/>
<path id="Fill 17" fill-rule="evenodd" clip-rule="evenodd" d="M10.5093 10.854C10.5093 10.9916 10.3981 11.104 10.2585 11.104C10.1204 11.104 10.0093 10.9916 10.0093 10.854C10.0093 10.7164 10.1204 10.604 10.2585 10.604C10.3981 10.604 10.5093 10.7164 10.5093 10.854Z" fill="black"/>
<path id="Fill 18" fill-rule="evenodd" clip-rule="evenodd" d="M11.4619 10.854C11.4619 10.9916 11.3508 11.104 11.2127 11.104C11.0731 11.104 10.9619 10.9916 10.9619 10.854C10.9619 10.7164 11.0731 10.604 11.2127 10.604C11.3508 10.604 11.4619 10.7164 11.4619 10.854Z" fill="black"/>
<path id="Fill 19" fill-rule="evenodd" clip-rule="evenodd" d="M12.1763 10.3775C12.1763 10.5171 12.0639 10.6283 11.9263 10.6283C11.7886 10.6283 11.6763 10.5171 11.6763 10.3775C11.6763 10.2394 11.7886 10.1283 11.9263 10.1283C12.0639 10.1283 12.1763 10.2394 12.1763 10.3775Z" fill="black"/>
<path id="Fill 20" fill-rule="evenodd" clip-rule="evenodd" d="M9.79346 10.3775C9.79346 10.5171 9.6811 10.6283 9.54346 10.6283C9.40582 10.6283 9.29346 10.5171 9.29346 10.3775C9.29346 10.2394 9.40582 10.1283 9.54346 10.1283C9.6811 10.1283 9.79346 10.2394 9.79346 10.3775Z" fill="black"/>
<path id="Fill 21" fill-rule="evenodd" clip-rule="evenodd" d="M10.9849 9.18598C10.9849 9.32562 10.8725 9.43677 10.7349 9.43677C10.5972 9.43677 10.4849 9.32562 10.4849 9.18598C10.4849 9.04791 10.5972 8.93677 10.7349 8.93677C10.8725 8.93677 10.9849 9.04791 10.9849 9.18598Z" fill="black"/>
</g>
</svg>
