<svg width="18" height="12" viewBox="0 0 18 12" fill="none" xmlns="http://www.w3.org/2000/svg">
<g id="view">
<g id="Group 3">
<mask id="mask0" mask-type="alpha" maskUnits="userSpaceOnUse" x="0" y="0" width="18" height="12">
<path id="Clip 2" fill-rule="evenodd" clip-rule="evenodd" d="M0.00195312 0.0235596H17.9998V11.4961H0.00195312V0.0235596Z" fill="white"/>
</mask>
<g mask="url(#mask0)">
<path id="Fill 1" fill-rule="evenodd" clip-rule="evenodd" d="M1.3493 5.75944C2.27345 6.88036 5.39536 10.3093 8.99989 10.3093C12.6122 10.3093 15.7275 6.88216 16.6505 5.76022C15.726 4.6387 12.6043 1.21036 8.99989 1.21036C5.38762 1.21036 2.27225 4.6375 1.3493 5.75944ZM8.99989 11.4961C4.10646 11.4961 0.274852 6.32989 0.114223 6.10995C-0.0380742 5.90126 -0.0380742 5.61818 0.114223 5.40953C0.274852 5.18977 4.10646 0.0235596 8.99989 0.0235596C13.8933 0.0235596 17.7248 5.18977 17.8856 5.40971C18.0381 5.61818 18.0381 5.90144 17.8856 6.11013C17.7248 6.32989 13.8933 11.4961 8.99989 11.4961Z" fill="#0A090B"/>
</g>
</g>
<path id="Fill 4" fill-rule="evenodd" clip-rule="evenodd" d="M8.9999 3.38615C7.69104 3.38615 6.62629 4.45092 6.62629 5.75979C6.62629 7.06866 7.69104 8.1334 8.9999 8.1334C10.3088 8.1334 11.3735 7.06866 11.3735 5.75979C11.3735 4.45092 10.3088 3.38615 8.9999 3.38615ZM8.9999 9.32024C7.03671 9.32024 5.43945 7.72299 5.43945 5.75979C5.43945 3.79659 7.03671 2.19934 8.9999 2.19934C10.9631 2.19934 12.5604 3.79659 12.5604 5.75979C12.5604 7.72299 10.9631 9.32024 8.9999 9.32024Z" fill="#0A090B"/>
</g>
</svg>
